<?xml version="1.0" standalone="no"?><!DOCTYPE svg PUBLIC "-//W3C//DTD SVG 1.1//EN" "http://www.w3.org/Graphics/SVG/1.1/DTD/svg11.dtd">
<svg t="1739331966301" class="icon" viewBox="0 0 1024 1024" version="1.1"
    xmlns="http://www.w3.org/2000/svg" p-id="68323"
    xmlns:xlink="http://www.w3.org/1999/xlink" width="200" height="200">
    <path d="M673.426286 51.712l279.917714 279.917714a73.142857 73.142857 0 0 1 0 103.424L450.194286 938.166857a73.142857 73.142857 0 0 1-103.424 0L66.889143 658.285714a73.142857 73.142857 0 0 1 0-103.424L570.002286 51.712a73.142857 73.142857 0 0 1 103.424 0zM280.502857 434.541714l-146.139428 146.139429a36.571429 36.571429 0 0 0 0 51.712l238.299428 238.336a36.571429 36.571429 0 0 0 51.748572 0l146.102857-146.139429-290.011429-290.011428z" p-id="68324"></path>
</svg>