<?xml version="1.0" standalone="no"?><!DOCTYPE svg PUBLIC "-//W3C//DTD SVG 1.1//EN" "http://www.w3.org/Graphics/SVG/1.1/DTD/svg11.dtd">
<svg t="1739331451131" class="icon" viewBox="0 0 1024 1024" version="1.1"
    xmlns="http://www.w3.org/2000/svg" p-id="20842"
    xmlns:xlink="http://www.w3.org/1999/xlink" width="200" height="200">
    <path d="M343.738182 447.650909c-32.814545 31.883636-68.957091 81.431273-104.238546 146.408727a23.272727 23.272727 0 0 1-40.890181-22.202181c36.631273-67.490909 75.403636-121.367273 112.709818-157.60291 35.979636-34.909091 76.101818-58.647273 114.315636-52.31709 18.990545 3.141818 34.909091 10.007273 47.569455 20.619636 12.660364 10.635636 20.759273 23.947636 25.832727 37.957818 9.774545 26.88 9.192727 58.88 8.098909 85.829818l-0.535273 12.357818c-1.070545 23.645091-1.954909 43.170909 0.977455 58.78691 1.605818 8.610909 4.026182 13.730909 6.609454 16.849454 2.187636 2.653091 5.585455 5.213091 12.567273 6.562909 10.007273 1.908364 22.690909-2.141091 41.355636-18.222545 16.244364-13.986909 32.814545-33.349818 51.735273-55.482182l7.866182-9.169455c21.527273-25.041455 45.777455-52.410182 73.099636-73.402181 27.554909-21.131636 59.950545-37.236364 97.838546-37.236364a23.272727 23.272727 0 1 1 0 46.545454c-23.994182 0-46.638545 10.077091-69.469091 27.624728-23.04 17.687273-44.520727 41.611636-66.164364 66.792727l-7.726545 9.053091c-18.525091 21.643636-37.655273 44.032-56.785455 60.532364-21.643636 18.641455-48.872727 34.722909-80.523636 28.672-16.477091-3.165091-29.882182-10.775273-39.656727-22.574546-9.402182-11.380364-14.08-24.948364-16.523637-37.981091-3.979636-21.410909-2.769455-47.36-1.675636-70.446545l0.512-11.170909c1.140364-27.927273 0.861091-50.990545-5.352727-68.049455-2.862545-7.912727-6.795636-13.800727-12.008728-18.152727-5.189818-4.375273-12.962909-8.331636-25.274181-10.379637-14.731636-2.443636-40.052364 6.609455-74.24 39.796364z" p-id="20843"></path>
</svg>