<?xml version="1.0" standalone="no"?><!DOCTYPE svg PUBLIC "-//W3C//DTD SVG 1.1//EN" "http://www.w3.org/Graphics/SVG/1.1/DTD/svg11.dtd">
<svg t="1739331581694" class="icon" viewBox="0 0 1024 1024" version="1.1"
    xmlns="http://www.w3.org/2000/svg" p-id="25648"
    xmlns:xlink="http://www.w3.org/1999/xlink" width="200" height="200">
    <path d="M837.818182 104.727273A128 128 0 0 1 965.818182 232.727273v558.545454A128 128 0 0 1 837.818182 919.272727H186.181818A128 128 0 0 1 58.181818 791.272727V232.727273A128 128 0 0 1 186.181818 104.727273h651.636364z m-166.167273 445.300363l-76.939636 153.879273a128 128 0 0 1-194.420364 42.682182L313.716364 677.422545a58.181818 58.181818 0 0 0-71.214546-1.11709L128 762.181818V791.272727c0 32.116364 26.065455 58.181818 58.181818 58.181818h651.636364c32.116364 0 58.181818-26.065455 58.181818-58.181818v-125.207272l-131.165091-131.165091a58.181818 58.181818 0 0 0-93.184 15.127272zM837.818182 174.545455H186.181818c-32.116364 0-58.181818 26.065455-58.181818 58.181818v442.181818l72.610909-54.458182a128 128 0 0 1 156.765091 2.420364l86.528 69.213091a58.181818 58.181818 0 0 0 88.389818-19.409455l76.893091-153.879273a128 128 0 0 1 205.032727-33.233454l81.780364 81.780363V232.727273c0-32.116364-26.065455-58.181818-58.181818-58.181818zM302.545455 232.727273a116.363636 116.363636 0 1 1 0 232.727272 116.363636 116.363636 0 0 1 0-232.727272z m0 69.818182a46.545455 46.545455 0 1 0 0 93.090909 46.545455 46.545455 0 0 0 0-93.090909z" p-id="25649"></path>
</svg>