<?xml version="1.0" standalone="no"?><!DOCTYPE svg PUBLIC "-//W3C//DTD SVG 1.1//EN" "http://www.w3.org/Graphics/SVG/1.1/DTD/svg11.dtd"><svg t="1739332236815" class="icon" viewBox="0 0 1024 1024" version="1.1" xmlns="http://www.w3.org/2000/svg" p-id="97512" xmlns:xlink="http://www.w3.org/1999/xlink" width="200" height="200"><path d="M548 746q-18 0-29.5-12T507 704V568h-11q-72 0-122 13-54 15-94.5 48T208 719q-8 16-20 22-10 5-24.5 5t-25-13Q128 720 128 698q0-204 88-313 93-115 280-115h11V135q0-18 12-31t30-13q12 0 23 7 8 4 25 19l282 263q18 18 18 38.5T879 457L598 723q-15 12-26 17.5t-24 5.5z" fill="#666666" p-id="97513"></path></svg>