<?xml version="1.0" standalone="no"?><!DOCTYPE svg PUBLIC "-//W3C//DTD SVG 1.1//EN" "http://www.w3.org/Graphics/SVG/1.1/DTD/svg11.dtd">
<svg t="1739331405570" class="icon" viewBox="0 0 1024 1024" version="1.1"
    xmlns="http://www.w3.org/2000/svg" p-id="20700"
    xmlns:xlink="http://www.w3.org/1999/xlink" width="200" height="200">
    <path d="M346.908444 268.885333c-31.516444-17.664-69.461333 9.187556-63.232 44.828445L361.813333 761.742222c4.750222 27.164444 40.106667 34.816 55.637334 12.032l68.835555-100.892444a171.150222 171.150222 0 0 1 100.067556-69.688889l172.088889-42.780445c27.022222-6.712889 31.886222-43.008 7.623111-56.604444l-419.185778-234.951111z m-119.296 54.613334c-14.449778-82.858667 73.756444-145.351111 147.114667-104.220445l419.185778 234.922667c69.205333 38.798222 55.324444 142.279111-21.703111 161.450667l-172.088889 42.808888a114.261333 114.261333 0 0 0-66.844445 46.506667L464.497778 805.831111c-44.316444 64.967111-145.180444 43.178667-158.691556-34.304L227.612444 323.470222z" p-id="20701"></path>
</svg>